<svg xmlns="http://www.w3.org/2000/svg" width="16" height="16" viewBox="0 0 16 16" style="background-color: #fdf0ed;fill: #b34f3b;box-shadow: inset 0 0 0 1px #f8d1c9;" focusable="false" role="img" data-icon-type="tokenIP" data-is-loaded="true" aria-hidden="true"><path fill-rule="evenodd" d="M11 3a2 2 0 012 2v6a2 2 0 01-2 2H5a2 2 0 01-2-2V5a2 2 0 012-2h6zm-1 2H8v6h1V9.014h1c.298-.013 2 0 2-2.018 0-1.74-1.314-1.952-1.825-1.987L10 5zM6 5H5v6h1V5zm4 .984c.667 0 1 .336 1 1.008C11 7.664 10.667 8 10 8H9V5.984z"></path></svg>