<svg xmlns="http://www.w3.org/2000/svg" width="16" height="16" viewBox="0 0 16 16" style="background-color: #fbf9ee;fill: #807234;box-shadow: inset 0 0 0 1px #f3eccd;" focusable="false" role="img" data-icon-type="tokenSearchType" data-is-loaded="true" aria-hidden="true"><path d="M6.27 7.5a1 1 0 112 0 1 1 0 01-2 0zM8.77 7.5a1 1 0 112 0 1 1 0 01-2 0z"></path><path fill-rule="evenodd" clip-rule="evenodd" d="M11.702 10.682a4.501 4.501 0 01-5.796.482L4.28 12.789a.75.75 0 01-1.06-1.06L4.847 10.1a4.501 4.501 0 116.855.581zm-5.304-1.06a3 3 0 104.243-4.243A3 3 0 006.398 9.62z"></path></svg>