<svg t="1710298963912" class="icon" viewBox="0 0 1024 1024" version="1.1" xmlns="http://www.w3.org/2000/svg" p-id="1482" width="14" height="14"><path d="M179.2 230.4h665.6c28.16 0 51.2 23.04 51.2 51.2v460.8c0 28.16-23.04 51.2-51.2 51.2H179.2c-28.16 0-51.2-23.04-51.2-51.2V281.6c0-28.16 23.04-51.2 51.2-51.2z m199.68 332.8c35.84 0 66.56-28.16 66.56-64S417.28 435.2 378.88 435.2s-66.56 28.16-66.56 64 30.72 64 66.56 64z m266.24 0c35.84 0 66.56-28.16 66.56-64S680.96 435.2 645.12 435.2c-35.84 0-66.56 28.16-66.56 64s28.16 64 66.56 64z" fill="#4A4A4A" p-id="1483"></path><path d="M476.16 153.6h71.68v102.4h-71.68z" fill="#4A4A4A" p-id="1484"></path><path d="M512 128m-76.8 0a76.8 76.8 0 1 0 153.6 0 76.8 76.8 0 1 0-153.6 0Z" fill="#4A4A4A" p-id="1485"></path><path d="M128 486.4m-76.8 0a76.8 76.8 0 1 0 153.6 0 76.8 76.8 0 1 0-153.6 0Z" fill="#4A4A4A" p-id="1486"></path><path d="M332.8 742.4h358.4v128H332.8z" fill="#4A4A4A" p-id="1487"></path><path d="M271.36 844.8h481.28c23.04 0 40.96 17.92 40.96 40.96v46.08c0 23.04-17.92 40.96-40.96 40.96H271.36c-23.04 0-40.96-17.92-40.96-40.96v-46.08c0-23.04 17.92-40.96 40.96-40.96z" fill="#4A4A4A" p-id="1488"></path><path d="M896 486.4m-76.8 0a76.8 76.8 0 1 0 153.6 0 76.8 76.8 0 1 0-153.6 0Z" fill="#4A4A4A" p-id="1489"></path></svg>