<?xml version="1.0" encoding="UTF-8"?>
<!DOCTYPE svg PUBLIC "-//W3C//DTD SVG 1.1//EN" "http://www.w3.org/Graphics/SVG/1.1/DTD/svg11.dtd">
<svg xmlns="http://www.w3.org/2000/svg" version="1.1" width="200px" height="200px" viewBox="0 0 200 200" style="shape-rendering:geometricPrecision; text-rendering:geometricPrecision; image-rendering:optimizeQuality; fill-rule:evenodd; clip-rule:evenodd" xmlns:xlink="http://www.w3.org/1999/xlink">
<g><path style="opacity:0.979" fill="#2c6dd1" d="M 91.5,-0.5 C 96.1667,-0.5 100.833,-0.5 105.5,-0.5C 130.577,7.47083 155.577,15.9708 180.5,25C 183.433,27.2643 185.6,30.0976 187,33.5C 187.667,60.1667 187.667,86.8333 187,113.5C 185.569,121.794 182.569,129.46 178,136.5C 172.011,144.112 165.678,144.445 159,137.5C 158.517,136.552 158.351,135.552 158.5,134.5C 158.338,132.473 158.505,130.473 159,128.5C 163.645,121.9 166.311,114.567 167,106.5C 167.667,84.8333 167.667,63.1667 167,41.5C 145.517,34.3388 124.017,27.1722 102.5,20C 99.7395,19.2782 97.0728,19.4448 94.5,20.5C 73.1948,27.4905 51.8615,34.4905 30.5,41.5C 29.0825,65.8554 29.2492,90.1887 31,114.5C 33.7945,122.758 38.1278,130.091 44,136.5C 59.7684,153.131 77.9351,166.464 98.5,176.5C 109.271,172.284 119.271,166.784 128.5,160C 137.879,155.342 143.879,158.008 146.5,168C 146.204,169.888 145.704,171.722 145,173.5C 131.975,184.101 117.475,192.267 101.5,198C 98.406,198.652 95.406,198.318 92.5,197C 77.003,190.092 62.6697,181.426 49.5,171C 39.6363,161.47 30.1363,151.637 21,141.5C 15.7182,134.268 12.0515,126.268 10,117.5C 9.33333,89.5 9.33333,61.5 10,33.5C 12.1145,29.052 15.2811,25.552 19.5,23C 43.6495,15.2271 67.6495,7.3938 91.5,-0.5 Z"/></g>
<g><path style="opacity:0.995" fill="#20c897" d="M 158.5,134.5 C 147.856,130.838 138.19,125.504 129.5,118.5C 129.828,114.184 131.161,110.184 133.5,106.5C 138.132,105.672 142.798,105.172 147.5,105C 153.119,104.046 155.785,100.713 155.5,95C 155.157,89.3239 152.157,86.3239 146.5,86C 138.833,85.3333 131.167,85.3333 123.5,86C 121.714,86.7845 120.214,87.9512 119,89.5C 117.121,93.2585 115.287,96.9252 113.5,100.5C 113.167,100.5 112.833,100.5 112.5,100.5C 112.5,99.8333 112.167,99.5 111.5,99.5C 105.565,83.0284 100.232,66.3617 95.5,49.5C 94.7549,39.8517 94.4216,30.1851 94.5,20.5C 97.0728,19.4448 99.7395,19.2782 102.5,20C 124.017,27.1722 145.517,34.3388 167,41.5C 167.667,63.1667 167.667,84.8333 167,106.5C 166.311,114.567 163.645,121.9 159,128.5C 158.505,130.473 158.338,132.473 158.5,134.5 Z"/></g>
<g><path style="opacity:0.98" fill="#2c6dd1" d="M 95.5,49.5 C 100.232,66.3617 105.565,83.0284 111.5,99.5C 112.167,99.5 112.5,99.8333 112.5,100.5C 112.833,101.833 113.167,101.833 113.5,100.5C 115.287,96.9252 117.121,93.2585 119,89.5C 120.214,87.9512 121.714,86.7845 123.5,86C 131.167,85.3333 138.833,85.3333 146.5,86C 152.157,86.3239 155.157,89.3239 155.5,95C 155.785,100.713 153.119,104.046 147.5,105C 142.798,105.172 138.132,105.672 133.5,106.5C 131.161,110.184 129.828,114.184 129.5,118.5C 126.065,125.272 122.899,132.272 120,139.5C 116.319,142.36 112.152,143.193 107.5,142C 105,140.833 103.167,139 102,136.5C 96,118.5 90,100.5 84,82.5C 81.8628,88.5787 79.5294,94.5787 77,100.5C 75.786,102.049 74.286,103.215 72.5,104C 63.8333,104.667 55.1667,104.667 46.5,104C 39.947,101.27 37.7804,96.4368 40,89.5C 41.5,88 43,86.5 44.5,85C 50.1393,84.04 55.806,83.2066 61.5,82.5C 65.4321,71.2038 69.2654,59.8704 73,48.5C 75.328,40.5846 80.4947,37.7513 88.5,40C 89.9308,40.4652 91.0975,41.2986 92,42.5C 93.2126,44.9252 94.3793,47.2585 95.5,49.5 Z"/></g>
</svg>
